<?xml version="1.0" standalone="no"?>
<!DOCTYPE svg PUBLIC "-//W3C//DTD SVG 20010904//EN"
 "http://www.w3.org/TR/2001/REC-SVG-20010904/DTD/svg10.dtd">
<svg version="1.0" xmlns="http://www.w3.org/2000/svg"
 width="249.000000pt" height="251.000000pt" viewBox="0 0 249.000000 251.000000"
 preserveAspectRatio="xMidYMid meet">

<g transform="translate(0.000000,251.000000) scale(0.100000,-0.100000)"
fill="#fff" stroke="none">
<path d="M1115 2200 c-82 -9 -245 -60 -328 -102 -48 -24 -56 -32 -47 -43 7 -8
20 -17 30 -20 10 -3 28 -22 39 -41 11 -19 37 -44 56 -55 20 -12 33 -24 30 -27
-3 -3 -11 0 -17 6 -7 7 -24 12 -38 12 -14 0 -49 17 -79 40 -29 22 -64 40 -77
40 -33 0 -31 -28 3 -32 14 -2 28 -8 30 -14 3 -8 -10 -10 -40 -7 -28 3 -47 1
-52 -6 -5 -9 -10 -9 -21 0 -11 9 -18 8 -29 -1 -14 -12 -11 -18 27 -55 66 -64
108 -113 108 -128 0 -19 10 -27 26 -20 11 4 12 8 3 19 -20 25 -3 26 45 5 25
-11 46 -17 46 -13 1 4 7 -8 15 -25 8 -18 21 -33 30 -33 9 0 28 -6 44 -14 15
-8 41 -16 57 -18 16 -2 35 -11 42 -20 19 -25 39 -22 68 10 l26 27 -22 -33
c-18 -26 -19 -36 -10 -47 17 -20 99 -19 128 1 27 19 28 44 3 123 -21 68 -19
74 44 163 19 26 35 52 35 58 0 5 -11 17 -25 26 -14 9 -25 21 -25 27 0 6 10 1
23 -11 30 -28 39 -28 55 5 19 41 15 62 -13 73 -21 8 -24 13 -17 27 7 12 4 32
-8 63 -16 42 -20 45 -56 46 -22 1 -70 -2 -109 -6z m-35 -24 c0 -2 -23 -18 -50
-36 -32 -20 -50 -39 -48 -48 2 -9 35 -43 75 -77 39 -33 84 -76 99 -95 23 -28
18 -25 -27 15 -31 28 -81 71 -112 98 -38 32 -54 52 -50 63 9 24 113 98 113 80z
m181 -38 c7 -18 14 -36 17 -40 2 -5 -3 -8 -10 -8 -10 0 -13 -9 -10 -30 3 -25
1 -29 -12 -24 -9 3 -16 12 -16 20 0 8 -9 22 -20 31 -18 16 -19 47 -3 76 11 19
42 5 54 -25z m-85 -117 c-23 -25 -36 -19 -36 18 0 38 10 45 34 22 19 -20 19
-21 2 -40z m-386 -112 c0 -5 -9 -4 -19 3 -11 7 -17 16 -14 20 5 10 33 -10 33
-23z m177 -41 c-3 -8 -6 -5 -6 6 -1 11 2 17 5 13 3 -3 4 -12 1 -19z"/>
<path d="M1280 2185 c0 -16 27 -32 37 -21 7 7 -16 36 -28 36 -5 0 -9 -7 -9
-15z"/>
<path d="M1344 2192 c-6 -4 -13 -29 -16 -55 -6 -48 -6 -49 21 -42 36 9 40 16
29 45 -10 24 -10 24 -18 5 -7 -15 -9 -16 -9 -4 -1 9 6 22 14 29 23 19 4 39
-21 22z"/>
<path d="M1455 2136 c-20 -46 -19 -86 2 -115 16 -23 17 -23 24 -5 3 10 2 25
-3 32 -14 16 3 15 26 -3 11 -8 27 -15 36 -15 23 0 90 48 90 65 0 14 -85 58
-137 71 -19 5 -26 0 -38 -30z"/>
<path d="M1691 2051 c-9 -6 -10 -11 -2 -15 13 -8 31 1 31 15 0 11 -11 11 -29
0z"/>
<path d="M1344 1976 c-7 -28 2 -49 17 -41 12 8 12 52 -1 60 -5 3 -12 -5 -16
-19z"/>
<path d="M1445 1969 c-9 -27 4 -39 32 -29 15 6 20 15 16 29 -7 27 -40 27 -48
0z"/>
<path d="M1745 1970 c3 -5 10 -10 16 -10 5 0 9 5 9 10 0 6 -7 10 -16 10 -8 0
-12 -4 -9 -10z"/>
<path d="M1655 1934 c-22 -34 -14 -40 14 -10 12 13 18 27 13 30 -5 3 -17 -6
-27 -20z"/>
<path d="M1741 1913 c0 -25 1 -26 9 -8 12 27 12 35 0 35 -5 0 -10 -12 -9 -27z"/>
<path d="M1820 1914 c0 -22 3 -24 23 -18 30 9 32 11 17 29 -20 23 -40 18 -40
-11z"/>
<path d="M1575 1880 c-14 -16 -15 -20 -4 -20 16 0 39 19 39 32 0 14 -16 9 -35
-12z"/>
<path d="M1404 1883 c-30 -6 -21 -55 10 -51 19 3 22 -3 28 -66 5 -52 3 -77 -8
-97 -16 -33 -18 -59 -4 -59 6 0 10 7 10 16 0 24 41 136 57 155 7 8 13 19 13
23 0 13 -31 39 -37 32 -4 -3 -12 7 -19 24 -7 16 -17 29 -21 29 -4 -1 -17 -4
-29 -6z"/>
<path d="M570 1838 c50 -42 51 -43 25 -46 -47 -6 -44 -51 4 -55 29 -2 117 -85
103 -99 -6 -6 -23 0 -47 16 -21 14 -47 26 -59 26 -17 -1 -14 -7 23 -39 25 -21
39 -40 33 -42 -8 -3 -2 -16 16 -35 15 -17 26 -36 24 -42 -2 -7 3 -10 12 -6 13
5 13 1 3 -25 -6 -18 -19 -31 -28 -31 -21 0 -69 55 -69 79 0 20 -29 63 -38 57
-4 -2 -8 19 -10 47 -3 55 -34 109 -59 105 -9 -2 -18 3 -20 10 -3 7 1 10 11 6
9 -3 16 -4 16 -1 0 14 -24 57 -32 57 -15 0 -67 -81 -98 -156 -43 -103 -69
-212 -77 -316 l-6 -88 111 0 c61 0 123 -5 138 -10 19 -8 30 -7 41 1 12 10 8
15 -24 30 -21 10 -47 19 -58 19 -11 0 -26 4 -34 9 -11 7 -9 11 8 20 11 7 21
18 21 26 0 17 -58 30 -97 22 l-28 -6 30 14 c58 27 93 20 140 -31 l42 -47 61 7
c56 6 61 5 80 -19 11 -14 23 -25 26 -25 3 0 6 20 6 44 0 55 24 112 62 147 l29
28 -28 36 c-15 19 -35 35 -44 35 -19 0 -74 56 -62 63 5 3 15 2 23 -4 8 -5 21
-9 29 -9 17 0 8 56 -14 80 -8 9 -15 22 -15 29 0 6 -14 14 -31 18 -19 3 -34 14
-39 28 -12 31 -108 115 -132 115 -16 0 -8 -10 32 -42z m-120 -129 c0 -6 -4 -7
-10 -4 -5 3 -10 11 -10 16 0 6 5 7 10 4 6 -3 10 -11 10 -16z m0 -71 c0 -9 -4
-20 -10 -23 -6 -4 -10 9 -10 32 0 28 3 34 10 23 5 -8 10 -23 10 -32z m83 2
c-7 -8 -22 24 -16 34 4 5 10 1 13 -10 4 -10 6 -21 3 -24z"/>
<path d="M1744 1787 c-8 -33 -1 -102 11 -102 5 0 13 16 17 35 13 62 -13 126
-28 67z"/>
<path d="M769 1733 c-13 -16 -12 -17 4 -4 9 7 17 15 17 17 0 8 -8 3 -21 -13z"/>
<path d="M790 1690 c0 -11 16 -63 36 -115 l36 -94 -26 -32 c-35 -42 -68 -106
-64 -127 2 -9 16 10 33 44 26 50 38 63 85 86 36 19 57 25 64 18 13 -13 63 -13
71 0 3 5 11 7 18 5 7 -3 18 -1 26 4 12 8 8 19 -20 66 -28 46 -37 55 -54 49
-31 -10 -85 -17 -85 -11 0 4 5 17 11 31 10 21 15 23 30 15 14 -7 19 -6 19 4 0
12 -141 77 -168 77 -7 0 -12 -9 -12 -20z m225 -171 c0 -7 -8 -15 -17 -17 -18
-3 -25 18 -11 32 10 10 28 1 28 -15z"/>
<path d="M1784 1612 c-6 -4 -30 -36 -54 -72 -23 -36 -59 -82 -78 -102 l-36
-38 59 -2 c95 -3 129 1 141 17 6 8 17 15 24 15 9 0 9 -4 2 -12 -24 -31 30 -78
173 -151 l30 -16 -35 -14 c-19 -8 -51 -18 -70 -22 -40 -9 -87 -31 -113 -53
-11 -10 -32 -15 -53 -14 -20 2 -33 -1 -31 -5 3 -4 -14 -7 -36 -5 -23 1 -49 -2
-57 -7 -17 -12 -19 -7 54 -125 52 -86 47 -111 -13 -60 -21 17 -49 28 -87 33
-46 7 -60 13 -81 39 -30 39 -46 40 -61 7 -6 -14 -16 -25 -22 -25 -17 0 -48 79
-55 140 -10 89 -13 97 -49 119 -44 27 -46 27 -46 -12 0 -21 12 -52 31 -80 39
-59 34 -82 -16 -73 -29 6 -39 3 -58 -18 l-24 -25 -34 25 c-44 32 -106 51 -120
37 -13 -13 -4 -68 35 -216 31 -117 31 -117 62 -117 33 0 31 -25 -6 -110 -30
-68 -37 -104 -22 -114 13 -8 69 21 111 59 30 27 46 35 58 30 16 -7 16 -8 -2
-13 -11 -2 -42 -21 -70 -42 -61 -45 -83 -54 -101 -39 -21 17 -17 54 11 109 64
126 -2 148 -92 31 -21 -26 -48 -61 -61 -77 -12 -16 5 13 38 64 32 51 62 108
66 127 13 70 -46 179 -63 115 -3 -11 -9 -18 -13 -15 -5 3 -28 -12 -53 -32 -24
-21 -52 -42 -61 -48 -9 -5 -26 -44 -37 -85 -12 -41 -25 -83 -31 -92 -12 -24
-40 -23 -56 2 -18 29 -51 121 -42 115 5 -3 16 -27 25 -54 17 -52 37 -77 54
-67 6 4 17 30 25 59 9 29 21 72 28 97 10 34 19 46 38 50 l25 6 -24 13 c-13 7
-36 10 -52 7 -25 -5 -30 -2 -35 22 -13 60 -36 121 -50 132 -16 14 -24 9 -81
-43 -27 -25 -43 -30 -115 -38 -46 -4 -101 -15 -122 -24 -21 -9 -40 -14 -42
-12 -3 2 7 26 20 53 14 27 28 68 31 92 6 37 5 42 -13 42 -11 0 -42 -20 -68
-44 l-49 -44 14 -38 c22 -64 71 -157 94 -182 12 -13 33 -28 46 -35 16 -8 28
-24 32 -45 4 -18 17 -45 30 -59 49 -53 176 -147 238 -176 l64 -30 31 34 c17
19 43 50 59 69 16 21 11 9 -13 -29 -56 -89 -52 -111 19 -111 15 0 32 -5 37
-10 18 -18 192 -32 299 -24 236 15 424 102 586 271 151 156 236 340 259 556
14 136 -17 358 -51 365 -8 1 -42 -18 -74 -42 -66 -50 -85 -56 -85 -26 0 12
-21 35 -55 60 -30 22 -55 45 -55 50 0 12 -11 13 -26 2z m310 -196 c-3 -9 -10
-16 -15 -16 -5 0 -4 9 3 20 14 22 21 20 12 -4z m-52 -6 c24 -11 16 -10 -107
11 -45 7 -44 8 17 3 37 -2 78 -9 90 -14z m-202 -305 c0 -9 -17 -33 -37 -53
-21 -21 -26 -24 -10 -7 31 35 35 61 10 68 -11 3 -7 5 10 6 18 1 27 -4 27 -14z
m-240 -205 c-6 -11 -8 -30 -5 -43 5 -17 -5 -38 -38 -83 -63 -84 -157 -187
-157 -171 0 7 14 26 31 43 37 35 121 140 138 172 8 15 9 28 2 40 -7 13 -4 23
11 40 26 27 32 28 18 2z m-110 -284 c0 -8 -4 -18 -10 -21 -5 -3 -10 -4 -10 -1
0 2 -3 11 -6 20 -4 11 -1 16 10 16 9 0 16 -6 16 -14z m143 -58 c23 -29 27 -30
44 -17 16 13 17 13 4 -3 -18 -24 -38 -22 -52 5 -6 12 -23 33 -37 45 -22 19
-23 22 -5 13 12 -6 33 -25 46 -43z"/>
<path d="M2210 1425 c0 -8 4 -15 10 -15 5 0 7 7 4 15 -4 8 -8 15 -10 15 -2 0
-4 -7 -4 -15z"/>
<path d="M620 1290 c-11 -7 -7 -10 17 -10 17 0 35 5 38 10 8 13 -35 13 -55 0z"/>
<path d="M307 1243 c-11 -10 -8 -72 4 -94 10 -20 11 -20 26 -2 12 14 12 13 -1
-9 -9 -15 -16 -36 -16 -47 0 -50 30 -69 50 -31 6 10 46 51 90 90 76 66 79 70
50 70 -16 0 -45 8 -65 17 -29 14 -41 15 -65 6 -17 -6 -30 -7 -30 -2 0 10 -33
12 -43 2z m143 -23 c0 -5 -4 -10 -10 -10 -5 0 -10 5 -10 10 0 6 5 10 10 10 6
0 10 -4 10 -10z"/>
<path d="M2225 1240 c3 -5 8 -10 11 -10 2 0 4 5 4 10 0 6 -5 10 -11 10 -5 0
-7 -4 -4 -10z"/>
<path d="M1760 470 c0 -5 5 -10 10 -10 6 0 10 5 10 10 0 6 -4 10 -10 10 -5 0
-10 -4 -10 -10z"/>
</g>
</svg>
