<svg version="1.0" xmlns="http://www.w3.org/2000/svg"
   width="530.000000pt" height="231.000000pt" viewBox="0 0 530.000000 231.000000"
   preserveAspectRatio="xMidYMid meet">
   <g transform="translate(0.000000,231.000000) scale(0.100000,-0.100000)"
      fill="#FFF" stroke="none">
      <path d="M1020 1976 c-103 -23 -260 -87 -260 -106 0 -5 14 -13 31 -19 17 -6
         28 -14 25 -19 -8 -13 61 -79 76 -75 5 2 8 -2 8 -7 0 -13 -17 -13 -25 0 -4 6
         -10 8 -15 5 -12 -7 -70 22 -70 35 0 6 -6 10 -14 10 -8 0 -16 4 -18 8 -2 5 -16
         12 -31 16 -18 4 -26 3 -23 -3 3 -5 0 -12 -6 -15 -7 -3 -2 -3 12 0 18 3 29 -1
         37 -15 11 -18 10 -19 -23 -9 -26 7 -39 6 -51 -4 -13 -11 -17 -11 -21 0 -3 10
         -7 10 -18 1 -18 -15 -18 -29 1 -29 8 0 15 -7 15 -15 0 -8 7 -15 15 -15 8 0 15
         -5 15 -11 0 -6 11 -20 25 -31 14 -11 22 -24 19 -30 -4 -7 -2 -8 4 -4 8 5 12
         -1 12 -18 0 -16 5 -23 15 -22 20 3 31 16 13 16 -8 0 -15 6 -15 14 0 11 7 12
         31 3 17 -5 36 -14 43 -19 7 -5 17 -7 22 -3 6 3 9 0 6 -7 -7 -20 8 -37 35 -40
         14 -2 31 -9 38 -16 8 -7 17 -10 22 -7 5 3 12 0 16 -6 4 -8 9 -7 15 2 7 11 9
         11 9 -1 0 -8 9 -21 19 -27 16 -10 22 -8 35 12 9 14 22 25 29 25 8 0 9 -3 1 -8
         -6 -4 -16 -17 -23 -29 -14 -28 -4 -34 55 -36 73 -3 85 39 43 145 -10 25 -7 34
         35 92 l46 65 -25 17 c-14 9 -25 21 -25 28 0 8 2 8 8 0 4 -6 18 -17 31 -24 21
         -11 23 -10 18 4 -4 9 -1 15 6 13 7 -1 13 10 15 26 2 18 -1 27 -11 27 -8 0 -20
         7 -27 15 -18 21 -31 9 -20 -19 7 -20 6 -24 -8 -22 -9 2 -17 11 -17 22 0 11
         -11 24 -25 31 -14 6 -19 12 -12 12 6 1 12 12 12 26 0 14 5 26 10 27 25 3 30 3
         30 -5 0 -4 7 -22 17 -40 16 -29 18 -30 21 -10 2 12 -4 33 -12 46 -9 13 -13 27
         -9 30 11 11 -128 6 -187 -7z m9 -29 c-68 -42 -72 -47 -52 -70 10 -10 37 -32
         59 -48 39 -27 127 -124 94 -104 -8 5 -23 19 -33 31 -9 13 -47 44 -82 70 -39
         29 -65 55 -65 66 0 18 82 78 104 78 6 0 -5 -11 -25 -23z m99 -119 c-22 -19
         -32 -23 -24 -10 2 4 1 14 -4 22 -5 8 -4 22 2 34 10 19 11 19 28 -4 18 -23 18
         -25 -2 -42z m-238 38 c0 -2 -7 -9 -15 -16 -13 -11 -14 -10 -9 4 5 14 24 23 24
         12z m290 -82 c0 -8 -19 -13 -24 -6 -3 5 1 9 9 9 8 0 15 -2 15 -3z m-376 -30
         c9 -24 8 -25 -13 -12 -11 7 -17 16 -15 20 8 13 21 9 28 -8z m153 -46 c2 -17 0
         -19 -7 -8 -5 8 -6 18 -4 22 8 12 10 10 11 -14z m166 -155 c-7 -2 -19 -2 -25 0
         -7 3 -2 5 12 5 14 0 19 -2 13 -5z"/>
      <path d="M1217 1984 c-9 -10 4 -34 19 -34 8 0 14 4 14 9 0 12 -26 32 -33 25z"/>
      <path d="M1262 1940 c3 -33 1 -39 -12 -35 -10 4 -12 3 -5 -4 13 -13 52 -3 59
         14 3 8 -3 19 -12 27 -10 8 -13 8 -9 1 4 -6 3 -14 -3 -18 -16 -10 -12 17 7 37
         15 17 15 18 -7 18 -20 0 -22 -4 -18 -40z"/>
      <path d="M1363 1938 c-16 -34 -15 -81 1 -104 14 -19 15 -19 22 0 5 12 3 21 -4
         24 -7 2 -10 8 -7 12 3 5 15 0 26 -11 23 -23 36 -20 86 14 38 26 33 33 -44 65
         -64 27 -67 27 -80 0z"/>
      <path d="M1562 1861 c-11 -7 -11 -9 2 -14 10 -4 16 -1 16 8 0 17 -1 17 -18 6z"/>
      <path d="M1270 1791 c0 -17 5 -31 10 -31 6 0 10 11 10 24 0 14 -4 28 -10 31
         -6 4 -10 -7 -10 -24z"/>
      <path d="M1354 1785 c-2 -22 1 -25 20 -19 11 3 26 11 31 17 7 7 6 8 -2 3 -8
         -4 -13 -1 -13 8 0 28 -35 19 -36 -9z"/>
      <path d="M1600 1796 c0 -7 7 -13 15 -13 8 0 15 4 15 8 0 4 -7 9 -15 13 -9 3
         -15 0 -15 -8z"/>
      <path d="M1533 1773 c4 -3 -1 -12 -11 -19 -9 -7 -15 -14 -12 -17 3 -2 16 6 30
         19 22 22 23 24 6 24 -11 0 -16 -3 -13 -7z"/>
      <path d="M1600 1750 c0 -11 2 -20 4 -20 2 0 6 9 9 20 3 11 1 20 -4 20 -5 0 -9
         -9 -9 -20z"/>
      <path d="M1664 1746 c0 -13 3 -23 6 -22 3 2 13 6 24 10 15 5 16 9 6 21 -19 23
         -38 18 -36 -9z"/>
      <path d="M1467 1726 c-18 -14 -22 -26 -9 -26 15 0 45 27 36 33 -5 3 -17 0 -27
         -7z"/>
      <path d="M588 1719 c-10 -7 -9 -9 3 -9 9 0 19 -7 23 -15 3 -8 17 -20 31 -27
         32 -15 32 -30 0 -24 -21 4 -25 1 -25 -20 0 -16 4 -23 11 -18 6 3 15 0 20 -7 7
         -11 9 -11 9 -1 0 7 5 10 10 7 6 -4 8 -11 5 -16 -4 -5 1 -9 9 -9 9 0 16 -6 16
         -13 0 -8 12 -19 26 -26 21 -9 24 -14 14 -26 -10 -12 -15 -11 -32 5 -26 24 -79
         44 -72 27 2 -7 18 -20 34 -29 17 -9 30 -22 30 -28 0 -6 -6 -8 -12 -4 -7 4 -3
         -4 10 -18 12 -13 19 -28 15 -33 -5 -4 1 -5 11 -1 16 5 17 4 6 -9 -11 -13 -10
         -14 5 -9 14 6 16 4 9 -7 -4 -8 -9 -20 -9 -28 0 -25 -22 -23 -49 4 -14 14 -26
         29 -27 33 -3 30 -10 47 -24 61 -15 15 -16 14 -10 -4 5 -16 5 -17 -3 -5 -8 10
         -8 18 0 27 7 9 7 13 0 13 -5 0 -9 14 -8 30 1 17 -1 30 -5 30 -4 0 -11 9 -14
         20 -5 15 -12 19 -26 15 -14 -5 -19 -2 -19 12 0 14 2 15 9 4 6 -9 11 -10 15 -2
         4 6 2 11 -3 11 -6 0 -11 9 -11 20 0 73 -88 -68 -129 -208 -12 -40 -25 -110
         -28 -155 l-6 -83 79 -1 c105 -2 138 -6 145 -16 3 -4 12 0 20 9 9 12 10 15 1
         10 -7 -4 -14 -1 -18 8 -3 8 -13 15 -22 14 -20 0 -63 10 -69 16 -3 2 5 9 16 16
         29 15 26 26 -7 38 -21 7 -38 6 -63 -5 -24 -10 -30 -11 -21 -1 7 7 30 18 51 24
         34 10 43 9 70 -8 17 -11 28 -25 24 -31 -3 -5 -1 -7 4 -4 6 4 13 -2 16 -13 5
         -18 11 -20 61 -14 51 6 57 5 75 -17 l20 -24 1 38 c0 50 35 126 63 136 21 8 21
         8 -8 36 -17 16 -24 25 -16 20 10 -5 12 -4 7 3 -4 7 -16 12 -26 12 -19 0 -60
         36 -60 53 0 5 7 6 15 3 8 -3 22 -9 31 -13 14 -5 15 -1 9 28 -4 19 -13 37 -19
         41 -6 4 -11 13 -11 20 0 7 -4 13 -10 13 -23 2 -55 17 -50 24 5 9 -22 40 -73
         82 -20 17 -35 23 -44 18z m-44 -84 c-4 -8 -8 -15 -10 -15 -2 0 -4 7 -4 15 0 8
         4 15 10 15 5 0 7 -7 4 -15z m-21 -50 c4 -8 2 -17 -3 -20 -6 -4 -10 3 -10 14 0
         25 6 27 13 6z m-1 -82 c-4 -19 -7 -22 -13 -11 -4 8 -6 23 -4 34 2 10 4 21 4
         24 1 3 5 -1 10 -8 4 -7 6 -25 3 -39z m75 26 c2 -17 -1 -18 -12 -9 -8 7 -12 16
         -9 21 9 16 20 10 21 -12z m33 -199 c0 -5 -5 -10 -11 -10 -5 0 -7 5 -4 10 3 6
         8 10 11 10 2 0 4 -4 4 -10z m-110 -56 c0 -8 -19 -13 -24 -6 -3 5 1 9 9 9 8 0
         15 -2 15 -3z"/>
      <path d="M1335 1721 c-4 -7 -14 -10 -24 -6 -12 5 -13 3 -4 -6 6 -6 9 -18 6
         -26 -5 -13 -2 -13 15 -4 21 11 22 10 22 -39 0 -27 5 -50 10 -50 6 0 1 -18 -10
         -40 -22 -44 -25 -60 -9 -60 5 0 8 4 5 8 -2 4 4 27 14 50 11 23 16 42 13 42 -3
         0 0 7 7 15 7 8 9 15 6 15 -4 0 0 7 8 16 19 19 21 35 4 32 -7 -2 -12 3 -10 11
         3 12 1 12 -14 0 -10 -8 -15 -9 -12 -4 4 6 1 21 -6 34 -9 16 -15 20 -21 12z"/>
      <path d="M2867 1692 c-45 -49 15 -136 61 -90 17 17 15 74 -4 92 -20 21 -37 20
         -57 -2z"/>
      <path d="M3080 1606 l0 -86 -45 0 c-41 0 -45 -2 -45 -24 0 -22 5 -25 43 -28
         l42 -3 5 -240 c5 -254 7 -262 58 -317 44 -47 130 -36 207 26 42 34 26 43 -21
         11 -51 -35 -79 -40 -109 -21 -39 26 -46 75 -43 318 l3 223 98 3 c53 1 97 7 97
         11 0 5 -28 12 -62 15 -35 4 -80 9 -100 12 l-37 6 -3 86 -3 87 -42 3 -43 3 0
         -85z"/>
      <path d="M3510 1606 l0 -86 -44 0 c-31 0 -46 -5 -50 -16 -11 -29 -6 -33 42
         -36 l47 -3 5 -240 c5 -254 7 -262 58 -317 20 -22 35 -28 69 -28 47 0 103 24
         141 60 37 34 19 34 -37 -1 -63 -39 -96 -34 -124 21 -15 31 -17 62 -15 270 l3
         235 100 5 c107 5 115 16 19 25 -33 3 -73 8 -91 11 l-32 5 -3 87 -3 87 -42 3
         -43 3 0 -85z"/>
      <path d="M2320 1667 c0 -7 36 -184 80 -392 44 -208 80 -382 80 -387 0 -13 77
         -9 88 5 6 7 61 181 122 387 61 206 113 381 115 388 7 20 -63 15 -74 -5 -5 -10
         -44 -173 -87 -361 -57 -248 -81 -337 -86 -320 -4 12 -37 165 -73 338 -37 173
         -73 325 -81 338 -16 25 -84 33 -84 9z"/>
      <path d="M1602 1609 c-2 -59 10 -80 22 -36 10 36 7 74 -6 85 -10 8 -14 -3 -16
         -49z"/>
      <path d="M789 1593 c-13 -16 -12 -17 4 -4 9 7 17 15 17 17 0 8 -8 3 -21 -13z"/>
      <path d="M805 1570 c-4 -6 10 -52 31 -102 37 -91 37 -91 16 -107 -25 -20 -62
         -89 -62 -116 0 -11 11 4 23 34 16 39 31 60 55 73 17 9 32 15 32 12 0 -3 7 2
         16 11 13 13 19 14 25 4 10 -17 40 -20 58 -6 8 7 16 11 18 10 8 -6 33 -2 33 5
         0 4 -13 29 -29 55 l-30 46 -31 -15 c-17 -9 -37 -13 -46 -10 -14 6 -14 8 13 55
         2 2 9 -2 17 -8 9 -7 16 -8 20 -2 4 5 -20 19 -51 30 -32 12 -66 26 -75 31 -22
         12 -25 12 -33 0z m195 -155 c0 -7 -6 -15 -14 -18 -18 -7 -31 24 -14 34 15 9
         28 2 28 -16z"/>
      <path d="M4034 1520 c-18 -4 -45 -16 -61 -28 -37 -26 -103 -98 -103 -112 0
         -14 31 3 51 26 28 35 93 74 121 74 71 0 98 -47 98 -170 0 -44 -3 -80 -6 -80
         -4 0 -21 13 -40 30 -78 68 -174 46 -226 -53 -31 -59 -31 -192 -1 -258 45 -100
         171 -86 243 28 l30 47 0 -53 c0 -71 12 -91 56 -91 l35 0 -3 263 c-3 242 -5
         265 -24 301 -34 66 -96 94 -170 76z m26 -275 c16 -8 41 -36 56 -61 32 -55 29
         -105 -10 -164 -52 -79 -104 -88 -150 -27 -17 23 -21 42 -20 105 0 45 5 88 13
         102 33 62 58 72 111 45z"/>
      <path d="M2857 1513 c-4 -3 -7 -148 -7 -320 l0 -314 43 3 42 3 3 318 2 317
         -38 0 c-21 0 -42 -3 -45 -7z"/>
      <path d="M4270 1200 l0 -321 48 3 47 3 5 150 c5 142 7 154 38 225 39 87 81
         156 117 190 30 28 47 22 83 -30 l22 -33 0 41 c0 69 -14 92 -55 92 -68 0 -107
         -45 -166 -189 l-34 -84 -5 134 -5 134 -47 3 -48 3 0 -321z"/>
      <path d="M4768 1504 c-34 -18 -81 -85 -109 -155 -31 -78 -38 -236 -13 -315 45
         -144 185 -201 309 -124 33 20 62 56 52 66 -2 2 -24 -12 -50 -32 -80 -62 -165
         -56 -209 14 -16 27 -23 56 -26 119 l-5 83 136 0 c162 0 173 5 162 79 -16 121
         -61 223 -114 260 -34 25 -94 27 -133 5z m107 -38 c28 -29 43 -78 52 -173 8
         -99 4 -103 -113 -103 l-94 0 0 83 c0 101 14 152 50 189 35 35 73 36 105 4z"/>
      <path d="M1618 1472 c-14 -20 -35 -54 -47 -74 -12 -21 -34 -47 -48 -58 l-26
         -20 29 -2 c16 0 49 -2 74 -4 49 -3 81 12 58 28 -17 12 153 1 188 -12 34 -13
         33 -13 44 13 l9 22 0 -23 c1 -29 -19 -37 -61 -24 -18 6 -61 14 -95 17 -62 7
         -63 7 -63 -18 0 -21 12 -32 68 -64 37 -22 75 -42 85 -46 32 -12 17 -23 -57
         -41 -52 -12 -80 -24 -95 -42 -18 -21 -27 -24 -54 -18 -30 6 -31 6 -17 -12 14
         -18 14 -18 -4 -4 -19 15 -74 15 -90 0 -4 -5 3 -23 16 -42 14 -18 37 -54 52
         -80 33 -56 19 -74 -25 -32 -24 23 -39 29 -75 29 -40 0 -47 4 -65 33 -25 39
         -32 40 -47 7 -6 -14 -18 -25 -25 -25 -17 0 -48 103 -49 161 0 28 -5 42 -17 46
         -9 3 -24 13 -33 21 -15 13 -18 12 -23 -11 -6 -24 10 -62 42 -95 20 -21 15 -39
         -12 -44 -13 -3 -22 -1 -19 3 3 5 -2 9 -10 9 -16 0 -42 -22 -48 -42 -3 -9 -13
         -5 -30 11 -14 14 -44 30 -67 37 -39 11 -41 11 -43 -10 -2 -42 3 -81 17 -111 7
         -16 19 -58 25 -92 12 -60 14 -63 41 -63 27 0 29 -2 23 -27 -3 -16 -17 -49 -30
         -75 -28 -55 -30 -76 -9 -84 16 -6 78 34 106 69 16 20 40 16 38 -6 0 -9 -2 -9
         -5 0 -4 8 -26 -4 -61 -33 -66 -54 -96 -56 -101 -7 -2 20 4 43 17 60 11 15 22
         42 26 59 6 29 4 31 -24 32 -28 1 -38 -11 -126 -135 -102 -144 -105 -156 -41
         -157 19 -1 32 -4 30 -8 -9 -14 144 -30 245 -25 125 6 194 23 297 74 296 147
         472 497 411 820 -23 121 -22 121 -92 68 -33 -25 -63 -45 -67 -45 -5 0 -8 9 -8
         20 0 14 -15 30 -45 48 -24 15 -45 32 -45 39 0 27 -19 20 -42 -15z m279 -94
         c-3 -7 -5 -2 -5 12 0 14 2 19 5 13 2 -7 2 -19 0 -25z m-210 -304 c5 -14 -41
         -70 -70 -85 -11 -6 -4 5 17 25 42 42 47 67 14 59 -19 -4 -20 -3 -8 6 18 13 42
         10 47 -5z m-487 -84 c-6 -11 -13 -20 -16 -20 -2 0 0 9 6 20 6 11 13 20 16 20
         2 0 0 -9 -6 -20z m285 -90 c-14 -16 -15 -22 -5 -35 10 -12 6 -24 -29 -70 -22
         -30 -60 -74 -83 -97 -23 -24 -41 -46 -40 -50 1 -5 -3 -8 -8 -8 -19 0 -10 28
         13 43 13 8 50 49 82 91 50 66 56 78 44 92 -11 14 -10 19 10 35 30 25 39 24 16
         -1z m-91 -229 c3 -4 -1 -17 -9 -27 -13 -16 -14 -17 -9 -1 3 9 1 17 -5 17 -6 0
         -11 5 -11 10 0 12 27 13 34 1z m95 -27 c17 -14 31 -32 31 -40 0 -16 16 -19 25
         -4 3 6 11 10 18 10 15 0 -25 -29 -40 -30 -7 0 -13 7 -13 16 0 18 -43 55 -74
         66 -21 6 -21 6 1 7 12 1 35 -11 52 -25z"/>
      <path d="M1990 1341 c0 -6 4 -13 10 -16 6 -3 7 1 4 9 -7 18 -14 21 -14 7z"/>
      <path d="M678 1232 c-29 -6 -20 -21 9 -16 15 3 29 7 31 8 6 6 -23 12 -40 8z"/>
      <path d="M2003 1185 c0 -8 4 -12 9 -9 5 3 6 10 3 15 -9 13 -12 11 -12 -6z"/>
      <path d="M400 1163 c0 -40 11 -74 21 -67 5 3 7 9 5 13 -3 4 2 8 10 8 11 0 9
         -6 -6 -22 -11 -12 -19 -28 -16 -36 17 -56 15 -56 54 -12 20 22 58 59 84 81
         l48 41 -31 -1 c-16 -1 -35 4 -41 10 -16 16 -61 15 -77 0 -11 -10 -13 -10 -7 0
         5 8 -1 12 -18 12 -22 0 -26 -5 -26 -27z m129 3 c10 -12 8 -13 -8 -9 -12 3 -18
         9 -15 14 7 12 10 11 23 -5z m-12 -22 c-3 -3 -12 -4 -19 -1 -8 3 -5 6 6 6 11 1
         17 -2 13 -5z m-10 -20 c-3 -3 -12 -4 -19 -1 -8 3 -5 6 6 6 11 1 17 -2 13 -5z"/>
      <path d="M472 1032 l-42 -38 25 -64 c32 -81 75 -145 99 -145 21 0 40 -30 32
         -50 -8 -21 123 -137 203 -179 75 -39 74 -40 116 18 11 16 25 33 30 40 6 6 39
         53 74 105 62 95 66 105 48 161 -19 61 -18 59 -37 47 -10 -6 -16 -15 -13 -21 3
         -5 1 -6 -5 -2 -7 4 -26 -8 -46 -30 -20 -22 -40 -35 -48 -31 -11 4 -19 -12 -32
         -68 -21 -88 -37 -115 -62 -99 -10 6 -22 24 -27 40 -4 16 -14 40 -20 54 -19 42
         -19 46 -3 25 9 -11 21 -36 26 -56 6 -20 17 -42 24 -49 20 -15 40 23 56 108 11
         54 16 63 31 59 30 -8 31 9 3 22 -20 9 -30 9 -41 -1 -18 -14 -33 4 -33 40 0 12
         -9 41 -20 63 l-21 40 -27 -20 c-15 -10 -35 -28 -45 -39 -15 -16 -31 -20 -78
         -21 -34 0 -74 -7 -91 -15 -32 -16 -58 -21 -58 -10 0 3 9 19 20 34 11 16 23 49
         26 74 8 58 -5 59 -64 8z m268 -186 c0 -2 -7 -7 -16 -10 -8 -3 -12 -2 -9 4 6
         10 25 14 25 6z"/>
      <path d="M4120 656 c0 -115 2 -136 15 -136 13 0 15 19 13 132 -2 94 -7 133
         -15 136 -10 3 -13 -28 -13 -132z"/>
      <path d="M4610 658 l0 -135 53 -1 c60 -1 92 15 101 54 16 61 -45 120 -99 96
         -24 -11 -24 -11 -27 50 -2 38 -8 63 -15 66 -10 3 -13 -28 -13 -130z m115 -28
         c27 -29 10 -74 -28 -78 -36 -4 -57 13 -57 49 0 47 53 65 85 29z"/>
      <path d="M5000 655 c0 -83 4 -135 10 -135 6 0 10 52 10 135 0 83 -4 135 -10
         135 -6 0 -10 -52 -10 -135z"/>
      <path d="M2310 650 l0 -130 45 0 c33 0 45 4 45 15 0 10 -11 15 -35 15 l-35 0
         0 115 c0 70 -4 115 -10 115 -6 0 -10 -50 -10 -130z"/>
      <path d="M4377 722 c-15 -16 -24 -31 -21 -35 4 -3 -5 -12 -19 -18 -51 -23 -59
         -104 -13 -134 12 -8 44 -13 74 -13 l52 1 0 75 c0 68 -2 74 -19 69 -10 -2 -26
         0 -35 5 -16 9 -16 12 5 34 15 16 19 28 13 34 -7 7 -19 1 -37 -18z m24 -82 c23
         -13 26 -62 5 -79 -46 -38 -111 25 -71 69 20 22 37 25 66 10z"/>
      <path d="M2463 670 c-49 -20 -59 -96 -17 -129 20 -16 39 -20 75 -19 l49 2 0
         73 c0 69 -1 73 -22 73 -13 0 -32 2 -43 5 -11 2 -30 0 -42 -5z m72 -40 c28 -31
         10 -74 -32 -78 -53 -5 -77 52 -35 86 23 18 46 15 67 -8z"/>
      <path d="M2746 659 c-34 -26 -37 -88 -5 -120 24 -24 92 -24 97 1 2 11 -8 15
         -40 15 -37 0 -44 3 -52 27 -14 40 16 72 61 65 24 -4 33 -2 33 8 0 30 -57 33
         -94 4z"/>
      <path d="M2910 673 c-33 -13 -50 -37 -50 -72 0 -59 28 -81 104 -79 l46 1 0 73
         c0 70 -1 74 -22 74 -13 0 -32 2 -43 5 -11 2 -27 1 -35 -2z m69 -55 c14 -24 14
         -28 -3 -47 -23 -25 -53 -27 -78 -4 -22 20 -23 32 -2 61 22 31 63 26 83 -10z"/>
      <path d="M3066 664 c-9 -8 -16 -21 -16 -28 0 -15 27 -40 53 -49 9 -4 17 -13
         17 -22 0 -17 -31 -20 -47 -4 -6 6 -16 8 -23 4 -18 -11 19 -45 50 -45 59 0 69
         59 15 91 -43 26 -46 44 -5 36 34 -7 40 7 11 23 -27 14 -37 13 -55 -6z"/>
      <path d="M3230 673 c-34 -13 -50 -37 -50 -75 0 -57 26 -78 95 -76 l55 2 0 73
         c0 69 -1 73 -22 73 -13 0 -32 2 -43 5 -11 2 -27 1 -35 -2z m60 -43 c24 -24 24
         -29 4 -58 -18 -26 -56 -29 -78 -6 -21 20 -20 43 1 66 21 24 48 23 73 -2z"/>
      <path d="M3513 670 c-74 -30 -46 -150 35 -150 34 0 87 40 63 48 -7 2 -18 -1
         -24 -7 -24 -24 -87 -9 -87 20 0 17 8 19 60 19 51 0 60 3 60 18 0 23 -10 37
         -37 51 -25 13 -40 13 -70 1z m67 -35 c11 -13 6 -15 -35 -15 -41 0 -46 2 -35
         15 7 8 23 15 35 15 12 0 28 -7 35 -15z"/>
      <path d="M3688 673 c-28 -4 -28 -5 -28 -79 0 -58 3 -74 15 -74 10 0 15 16 17
         62 3 53 6 63 22 66 28 6 46 -25 46 -80 0 -26 5 -48 10 -48 6 0 10 28 10 64 0
         56 -3 67 -22 80 -12 9 -27 15 -33 15 -5 -1 -22 -4 -37 -6z"/>
      <path d="M3963 668 c-34 -16 -48 -69 -29 -106 17 -33 34 -42 75 -42 33 0 70
         35 54 51 -7 7 -14 5 -23 -6 -18 -21 -67 -19 -79 4 -15 26 -5 31 61 31 63 0 72
         11 41 49 -22 25 -70 35 -100 19z m77 -33 c11 -13 6 -15 -35 -15 -41 0 -46 2
         -35 15 7 8 23 15 35 15 12 0 28 -7 35 -15z"/>
      <path d="M4513 673 c-21 -4 -23 -10 -23 -79 0 -58 3 -74 15 -74 10 0 15 16 17
         63 3 56 5 62 25 62 29 1 41 14 23 25 -16 10 -20 10 -57 3z"/>
      <path d="M4850 673 c-54 -21 -69 -92 -27 -131 51 -48 127 -12 127 60 0 50 -54
         89 -100 71z m69 -55 c14 -24 14 -28 -3 -47 -23 -25 -53 -27 -78 -4 -22 20 -23
         32 -2 61 22 31 63 26 83 -10z"/>
      <path d="M1616 542 c-3 -5 1 -9 9 -9 8 0 12 4 9 9 -3 4 -7 8 -9 8 -2 0 -6 -4
         -9 -8z"/>
   </g>
</svg>